<svg width="14" height="14" viewBox="0 0 14 14" fill="none" xmlns="http://www.w3.org/2000/svg">
<path d="M7 14C10.866 14 14 10.866 14 7C14 3.13401 10.866 0 7 0C3.13401 0 0 3.13401 0 7C0 10.866 3.13401 14 7 14Z" fill="#1111FF"/>
<path d="M4.81181 10.4173L2.25984 7.66693C2.09055 7.48553 2.00011 7.24438 2.00838 6.99639C2.01664 6.7484 2.12294 6.51382 2.30394 6.34409C2.48605 6.17549 2.72761 6.08603 2.97561 6.09533C3.22361 6.10463 3.4578 6.21193 3.62677 6.3937L5.6 8.50472L8.7252 5.58346C8.75312 5.55782 8.78257 5.53389 8.81339 5.51181L10.2795 4.13937C10.4609 3.97007 10.7021 3.87964 10.9501 3.8879C11.1981 3.89617 11.4326 4.00246 11.6024 4.18346C11.7717 4.36486 11.8621 4.60601 11.8538 4.854C11.8456 5.10199 11.7393 5.33658 11.5583 5.5063L7.06614 9.69527L5.5063 11.1449L4.81732 10.4063L4.81181 10.4173Z" fill="white"/>
</svg>
