<svg width="24" height="24" viewBox="0 0 24 24" fill="none" xmlns="http://www.w3.org/2000/svg">
<path d="M12 24C18.6274 24 24 18.6274 24 12C24 5.37258 18.6274 0 12 0C5.37258 0 0 5.37258 0 12C0 18.6274 5.37258 24 12 24Z" fill="#1111FF"/>
<path d="M12.1671 11.3265C11.2297 11.3265 6.3999 8.58769 6.3999 8.58769V8.16001C6.3999 7.63009 6.82998 7.20001 7.36086 7.20001H16.9733C17.5047 7.20001 17.9348 7.63009 17.9348 8.16001L17.9271 8.64001C17.9271 8.64001 13.1497 11.3265 12.1671 11.3265Z" fill="white"/>
<path d="M12.1671 12.6465C13.1948 12.6465 17.9271 10.08 17.9271 10.08L17.9348 15.84C17.9348 16.3699 17.5047 16.8 16.9733 16.8H7.36086C6.83046 16.8 6.3999 16.3699 6.3999 15.84L6.40758 10.08C6.40758 10.08 11.2297 12.6465 12.1671 12.6465Z" fill="white"/>
</svg>
