<svg width="98" height="20" viewBox="0 0 98 20" fill="none" xmlns="http://www.w3.org/2000/svg">
<path d="M20.1539 12.4205C18.7874 17.7776 13.2357 21.0379 7.7538 19.702C2.27412 18.3664 -1.06172 12.9402 0.30548 7.58341C1.67141 2.22568 7.22304 -1.0349 12.7034 0.300709C18.185 1.63631 21.5205 7.0631 20.1539 12.4205Z" fill="#F7931A"/>
<path d="M14.7408 8.57672C14.9445 7.24612 13.9079 6.53081 12.4905 6.05363L12.9503 4.25116L11.8277 3.97773L11.38 5.7327C11.0849 5.66083 10.7818 5.59302 10.4806 5.52583L10.9314 3.75929L9.80946 3.48586L9.34936 5.2877C9.10508 5.23333 8.86527 5.17959 8.6325 5.12302L8.63378 5.1174L7.08561 4.73959L6.78698 5.91144C6.78698 5.91144 7.61989 6.098 7.60231 6.10957C8.05698 6.2205 8.13914 6.51456 8.1254 6.74768L7.60166 8.80109C7.633 8.8089 7.67361 8.82015 7.71837 8.83765C7.68097 8.82859 7.641 8.81859 7.59975 8.8089L6.86562 11.6854C6.80999 11.8204 6.66899 12.0229 6.35117 11.946C6.36236 11.962 5.5352 11.747 5.5352 11.747L4.97789 13.0029L6.43878 13.3588C6.71055 13.4254 6.97689 13.4951 7.23908 13.5607L6.77451 15.3838L7.89583 15.6572L8.35593 13.8535C8.66224 13.9348 8.9596 14.0098 9.25056 14.0804L8.79206 15.8757L9.91466 16.1491L10.3792 14.3294C12.2935 14.6835 13.733 14.5407 14.3389 12.8485C14.8271 11.486 14.3146 10.7001 13.3074 10.1876C14.0409 10.0223 14.5934 9.55077 14.7408 8.57672ZM12.1758 12.092C11.8289 13.4545 9.48173 12.7179 8.72075 12.5332L9.33721 10.1179C10.0982 10.3036 12.5384 10.6711 12.1758 12.092ZM12.5231 8.55703C12.2065 9.79638 10.2529 9.16671 9.61922 9.01233L10.1781 6.82175C10.8118 6.97612 12.8527 7.26424 12.5231 8.55703Z" fill="white"/>
<path d="M29.9828 6.05176C30.8125 6.05176 31.5293 6.19706 32.1317 6.48237C32.737 6.77049 33.2364 7.15862 33.637 7.64673C34.0322 8.13735 34.3264 8.71078 34.5163 9.36795C34.705 10.027 34.7996 10.7354 34.7996 11.4939C34.7996 12.6588 34.5812 13.7595 34.1403 14.7969C33.6994 15.836 33.1012 16.7372 32.3402 17.5059C31.5798 18.2738 30.682 18.8791 29.6467 19.3262C28.613 19.7737 27.4891 19.9975 26.2824 19.9975C26.1264 19.9975 25.852 19.9931 25.4645 19.9853C25.077 19.9775 24.6316 19.9384 24.1328 19.8725C23.6308 19.804 23.1001 19.7028 22.5396 19.5672C21.9794 19.434 21.4473 19.2475 20.9463 19.0106L25.4265 0.612159L29.4392 0.00435349L27.8351 6.53332C28.1785 6.38207 28.5244 6.26488 28.8697 6.17957C29.2154 6.0955 29.5863 6.05176 29.9828 6.05176ZM26.6169 16.8863C27.2212 16.8863 27.7906 16.741 28.3255 16.4557C28.8621 16.17 29.3251 15.7844 29.7129 15.3041C30.1007 14.8216 30.4077 14.2782 30.6315 13.671C30.8553 13.0638 30.9685 12.4304 30.9685 11.7714C30.9685 10.9617 30.8301 10.3301 30.5541 9.87358C30.2782 9.41889 29.7676 9.19014 29.0261 9.19014C28.7831 9.19014 28.4701 9.23545 28.0819 9.31639C27.6925 9.40233 27.3439 9.58077 27.0316 9.8492L25.3235 16.7828C25.4265 16.8006 25.5176 16.8175 25.5953 16.8335C25.6714 16.8507 25.7555 16.8628 25.8393 16.8713C25.9278 16.881 26.0292 16.886 26.1516 16.886C26.2741 16.886 26.4273 16.8863 26.6169 16.8863Z" fill="#4D4D4D"/>
<path d="M38.961 19.6453H35.1283L38.365 6.33394H42.224L38.961 19.6453ZM40.8261 4.71209C40.2911 4.71209 39.8061 4.55647 39.3757 4.2446C38.9418 3.93461 38.727 3.45743 38.727 2.81431C38.727 2.46057 38.8005 2.12869 38.9463 1.81557C39.0944 1.50308 39.2878 1.23402 39.5302 1.00528C39.7722 0.778405 40.0526 0.597154 40.3711 0.460594C40.6915 0.326221 41.0323 0.259038 41.3955 0.259038C41.9301 0.259038 42.4126 0.414661 42.8446 0.726531C43.2749 1.03996 43.4914 1.51714 43.4914 2.15682C43.4914 2.51181 43.4182 2.84493 43.2711 3.15743C43.125 3.46992 42.9315 3.73898 42.6892 3.96772C42.4491 4.19491 42.1661 4.37553 41.8483 4.51084C41.5276 4.6474 41.188 4.71209 40.8261 4.71209Z" fill="#4D4D4D"/>
<path d="M45.5828 3.01743L49.5971 2.40963L48.6114 6.33331H52.9106L52.1343 9.42014H47.861L46.7227 14.0763C46.6178 14.4644 46.5583 14.8269 46.5417 15.1638C46.5229 15.5022 46.5667 15.7929 46.6703 16.0375C46.7732 16.2829 46.9583 16.4719 47.2269 16.6057C47.4942 16.7416 47.877 16.81 48.3789 16.81C48.7924 16.81 49.1952 16.7716 49.5847 16.6953C49.9719 16.6203 50.3642 16.516 50.7613 16.3794L51.0472 19.2656C50.5292 19.4512 49.9684 19.6109 49.3641 19.7453C48.7588 19.8815 48.0423 19.9472 47.2141 19.9472C46.0234 19.9472 45.1003 19.7744 44.4426 19.4303C43.7859 19.0837 43.3216 18.6103 43.0438 18.011C42.7698 17.4138 42.6473 16.7253 42.6815 15.9497C42.717 15.1722 42.8369 14.3551 43.0438 13.4945L45.5828 3.01743Z" fill="#4D4D4D"/>
<path d="M52.7418 14.3297C52.7418 13.1832 52.9317 12.102 53.3112 11.0898C53.6901 10.0767 54.2359 9.19077 54.9441 8.43047C55.6498 7.67392 56.5096 7.07455 57.5216 6.63456C58.5287 6.19706 59.6565 5.97645 60.8993 5.97645C61.6772 5.97645 62.372 6.04832 62.9833 6.19238C63.5972 6.33769 64.1526 6.5255 64.6549 6.76113L63.3331 9.69858C62.9878 9.5617 62.6294 9.44108 62.2588 9.33171C61.8879 9.22014 61.4352 9.1664 60.8996 9.1664C59.6203 9.1664 58.609 9.59733 57.8563 10.4564C57.1065 11.316 56.7289 12.4732 56.7289 13.9248C56.7289 14.7851 56.9189 15.4807 57.3 16.0129C57.6792 16.545 58.3797 16.8097 59.3968 16.8097C59.8988 16.8097 60.3832 16.7585 60.8472 16.6585C61.3146 16.5572 61.7274 16.4297 62.0909 16.2791L62.3771 19.2903C61.8924 19.4741 61.3578 19.64 60.7714 19.7853C60.1837 19.9256 59.4841 19.9984 58.6729 19.9984C57.6021 19.9984 56.6957 19.8453 55.9542 19.5437C55.2124 19.2375 54.5995 18.8309 54.1167 18.3159C53.6313 17.7997 53.2828 17.1969 53.0673 16.505C52.8518 15.8138 52.7418 15.0875 52.7418 14.3297Z" fill="#4D4D4D"/>
<path d="M69.7679 19.9984C68.8531 19.9984 68.0585 19.8622 67.3845 19.5925C66.7124 19.3228 66.1558 18.9444 65.7155 18.4538C65.2746 17.9656 64.9446 17.3872 64.7186 16.7206C64.4925 16.0544 64.3838 15.3166 64.3838 14.5082C64.3838 13.4941 64.5504 12.4804 64.8871 11.4695C65.2222 10.4564 65.7193 9.54608 66.3774 8.73703C67.0303 7.92673 67.8357 7.26423 68.784 6.74768C69.7314 6.23456 70.8211 5.97645 72.0451 5.97645C72.9432 5.97645 73.7336 6.113 74.4169 6.38269C75.097 6.65174 75.6572 7.0333 76.1 7.52142C76.538 8.01204 76.8709 8.58797 77.0947 9.25546C77.3201 9.92045 77.4314 10.6601 77.4314 11.4692C77.4314 12.4801 77.267 13.4938 76.9409 14.5079C76.6145 15.5169 76.13 16.4294 75.4906 17.2403C74.8524 18.0494 74.0543 18.7116 73.0957 19.2259C72.1384 19.7403 71.0283 19.9984 69.7679 19.9984ZM71.6834 9.16671C71.1153 9.16671 70.6129 9.32795 70.1829 9.64638C69.7513 9.96857 69.3887 10.3736 69.0964 10.862C68.801 11.3526 68.582 11.8876 68.4339 12.4692C68.2872 13.052 68.2152 13.6029 68.2152 14.1263C68.2152 14.971 68.3546 15.6288 68.6287 16.1022C68.9065 16.5732 69.4056 16.81 70.1311 16.81C70.7012 16.81 71.201 16.65 71.6336 16.3282C72.0626 16.0085 72.4256 15.6032 72.72 15.1138C73.0136 14.6257 73.2345 14.0891 73.3825 13.5066C73.5274 12.9257 73.6012 12.3717 73.6012 11.8492C73.6012 11.0067 73.4625 10.3473 73.1859 9.87451C72.9096 9.40358 72.4083 9.16671 71.6834 9.16671Z" fill="#4D4D4D"/>
<path d="M81.6078 19.6453H77.7719L81.0086 6.33394H84.8695L81.6078 19.6453ZM83.47 4.71209C82.9354 4.71209 82.4506 4.55647 82.0209 4.2446C81.5893 3.93461 81.3725 3.45743 81.3725 2.81431C81.3725 2.46057 81.447 2.12869 81.5931 1.81557C81.7392 1.50308 81.9339 1.23402 82.1763 1.00528C82.4171 0.778405 82.7 0.597154 83.0179 0.460594C83.3363 0.326221 83.6772 0.259038 84.0391 0.259038C84.575 0.259038 85.0591 0.414661 85.4901 0.726531C85.9214 1.03996 86.1392 1.51714 86.1392 2.15682C86.1392 2.51181 86.0618 2.84493 85.9169 3.15743C85.7721 3.46992 85.5774 3.73898 85.336 3.96772C85.093 4.19491 84.8135 4.37553 84.4951 4.51084C84.174 4.6474 83.8338 4.71209 83.47 4.71209Z" fill="#4D4D4D"/>
<path d="M87.6317 6.93924C87.9227 6.85612 88.2475 6.75612 88.6008 6.64737C88.9554 6.53863 89.3516 6.43738 89.7941 6.34613C90.2318 6.25207 90.7258 6.17582 91.2691 6.11676C91.8123 6.05645 92.4313 6.02707 93.119 6.02707C95.1404 6.02707 96.5339 6.60238 97.3032 7.74955C98.0718 8.89672 98.2048 10.4667 97.706 12.4567L95.943 19.644H92.085L93.7937 12.6079C93.898 12.1685 93.9798 11.7439 94.0402 11.3289C94.1013 10.9176 94.0978 10.5551 94.0265 10.2414C93.9584 9.93139 93.7979 9.67764 93.5488 9.48108C93.2959 9.28764 92.9138 9.19046 92.3955 9.19046C91.8957 9.19046 91.3873 9.24296 90.8684 9.34421L88.3562 19.6437H84.4967L87.6317 6.93924Z" fill="#4D4D4D"/>
</svg>
