<svg width="112" height="29" viewBox="0 0 112 29" fill="none" xmlns="http://www.w3.org/2000/svg">
<g opacity="0.8">
<path d="M31.7541 16.6863C31.7524 16.7871 31.7123 16.8831 31.6423 16.9534C31.5723 17.0237 31.4783 17.0625 31.3807 17.0613H24.5052C24.6815 18.8189 25.957 20.4265 27.7615 20.4265C28.9956 20.4265 29.9082 19.9442 30.5926 18.9261C30.6245 18.8726 30.6686 18.828 30.721 18.7962C30.7734 18.7645 30.8326 18.7465 30.8933 18.7439C30.9386 18.7426 30.9837 18.7508 31.0258 18.7681C31.0679 18.7854 31.1062 18.8114 31.1382 18.8445C31.1702 18.8776 31.1954 18.9172 31.2121 18.9607C31.2289 19.0042 31.2369 19.0508 31.2356 19.0976C31.2358 19.1622 31.2178 19.2255 31.1837 19.2797C30.4889 20.5229 29.1096 21.1338 27.7615 21.1338C25.4489 21.1338 23.7896 18.9904 23.7896 16.7077C23.7896 14.425 25.4385 12.2816 27.7615 12.2816C30.0845 12.2816 31.7437 14.4035 31.7541 16.6863ZM31.0178 16.354C30.8726 14.5965 29.5659 12.9889 27.7615 12.9889C25.957 12.9889 24.6815 14.5965 24.5052 16.354H31.0178Z" fill="#3B3B3B"/>
<path d="M40.1126 12.4531C40.2025 12.4558 40.2881 12.4939 40.3517 12.5596C40.4153 12.6254 40.4522 12.7138 40.4548 12.8067C40.4561 12.8535 40.4481 12.9001 40.4314 12.9436C40.4147 12.9871 40.3895 13.0267 40.3574 13.0598C40.3254 13.0929 40.2872 13.1189 40.2451 13.1362C40.203 13.1535 40.1579 13.1617 40.1126 13.1604H38.2667V20.6515C38.2659 20.745 38.2295 20.8345 38.1655 20.9007C38.1015 20.9668 38.015 21.0043 37.9244 21.0052C37.8345 21.0025 37.749 20.9643 37.6853 20.8986C37.6217 20.8329 37.5848 20.7445 37.5822 20.6515V13.1604H35.8089C35.7636 13.1617 35.7185 13.1535 35.6764 13.1362C35.6343 13.1189 35.5961 13.0929 35.564 13.0598C35.532 13.0267 35.5068 12.9871 35.4901 12.9436C35.4734 12.9001 35.4654 12.8535 35.4667 12.8067C35.4675 12.7132 35.5038 12.6237 35.5678 12.5576C35.6318 12.4914 35.7184 12.4539 35.8089 12.4531H37.5822V9.72025C37.5824 9.6297 37.6138 9.54218 37.6709 9.47342C37.7279 9.40467 37.8068 9.35919 37.8933 9.34516C37.9417 9.33852 37.9909 9.34275 38.0376 9.35757C38.0843 9.37239 38.1273 9.39744 38.1637 9.43102C38.2001 9.4646 38.2291 9.5059 38.2487 9.55212C38.2682 9.59834 38.2779 9.64838 38.277 9.69882V12.4531H40.1126Z" fill="#3B3B3B"/>
<path d="M51.3644 16.0754V20.6086C51.3618 20.7016 51.3249 20.79 51.2613 20.8557C51.1977 20.9215 51.1122 20.9596 51.0222 20.9623C50.9769 20.9636 50.9319 20.9554 50.8898 20.9381C50.8476 20.9208 50.8094 20.8948 50.7774 20.8617C50.7453 20.8286 50.7202 20.7891 50.7034 20.7455C50.6867 20.702 50.6787 20.6554 50.68 20.6086V16.0754C50.68 14.5429 49.84 13.0211 48.1911 13.0211C46.0756 13.0211 45.163 14.9287 45.2874 16.8899C45.2874 16.9435 45.3081 17.1685 45.3081 17.2007V20.5979C45.308 20.6885 45.2765 20.776 45.2195 20.8448C45.1625 20.9135 45.0836 20.959 44.997 20.973C44.9486 20.9797 44.8994 20.9754 44.8528 20.9606C44.8061 20.9458 44.7631 20.9207 44.7267 20.8872C44.6902 20.8536 44.6613 20.8123 44.6417 20.7661C44.6221 20.7198 44.6125 20.6698 44.6133 20.6194V5.71212C44.6141 5.61858 44.6505 5.52912 44.7145 5.46297C44.7785 5.39683 44.865 5.3593 44.9556 5.35846C45.0455 5.36116 45.131 5.39928 45.1947 5.46503C45.2583 5.53078 45.2952 5.61918 45.2978 5.71212V14.1356C45.8889 13.0425 46.9467 12.303 48.1807 12.303C50.2133 12.303 51.3644 14.1356 51.3644 16.0754Z" fill="#3B3B3B"/>
<path d="M63.7155 16.6863C63.7139 16.7871 63.6737 16.8831 63.6038 16.9534C63.5338 17.0237 63.4398 17.0625 63.3422 17.0613H56.4666C56.6429 18.8189 57.9185 20.4265 59.7229 20.4265C60.957 20.4265 61.8696 19.9442 62.5541 18.9261C62.5859 18.8726 62.63 18.828 62.6824 18.7962C62.7349 18.7645 62.7941 18.7465 62.8548 18.7439C62.9001 18.7426 62.9452 18.7508 62.9873 18.7681C63.0294 18.7854 63.0676 18.8114 63.0997 18.8445C63.1317 18.8776 63.1569 18.9172 63.1736 18.9607C63.1903 19.0042 63.1983 19.0508 63.197 19.0976C63.1973 19.1622 63.1792 19.2255 63.1452 19.2797C62.4504 20.5229 61.0711 21.1338 59.7229 21.1338C57.4104 21.1338 55.7511 18.9904 55.7511 16.7077C55.7511 14.425 57.4 12.2816 59.7229 12.2816C62.0252 12.2816 63.7052 14.4035 63.7155 16.6863ZM62.9689 16.354C62.8237 14.5965 61.517 12.9889 59.7126 12.9889C57.9081 12.9889 56.6326 14.5965 56.4563 16.354H62.9689Z" fill="#3B3B3B"/>
<path d="M72.1674 12.7853C72.174 12.8804 72.1438 12.9744 72.0836 13.0467C72.0234 13.119 71.9379 13.1637 71.8459 13.1711C69.8237 13.4819 68.9111 15.1859 68.9111 17.1685V20.5658C68.9109 20.6563 68.8795 20.7439 68.8225 20.8126C68.7654 20.8814 68.6866 20.9268 68.6 20.9409C68.5516 20.9475 68.5024 20.9433 68.4557 20.9285C68.4091 20.9136 68.3661 20.8886 68.3296 20.855C68.2932 20.8214 68.2642 20.7801 68.2446 20.7339C68.2251 20.6877 68.2154 20.6377 68.2163 20.5872V12.8389C68.2165 12.7483 68.2479 12.6608 68.3049 12.592C68.3619 12.5233 68.4408 12.4778 68.5274 12.4638C68.5758 12.4571 68.625 12.4614 68.6716 12.4762C68.7183 12.491 68.7613 12.5161 68.7978 12.5496C68.8342 12.5832 68.8632 12.6245 68.8827 12.6707C68.9023 12.717 68.912 12.767 68.9111 12.8174V14.3928C69.4815 13.3962 70.6118 12.4531 71.7941 12.4531C71.9703 12.4531 72.1674 12.5817 72.1674 12.7853Z" fill="#3B3B3B"/>
<path d="M83.4711 16.6863C83.4695 16.7871 83.4293 16.8831 83.3593 16.9534C83.2894 17.0237 83.1953 17.0625 83.0978 17.0613H76.2222C76.3985 18.8189 77.6741 20.4265 79.4785 20.4265C80.7126 20.4265 81.6252 19.9442 82.3096 18.9261C82.3415 18.8726 82.3856 18.828 82.438 18.7962C82.4905 18.7645 82.5496 18.7465 82.6104 18.7439C82.6557 18.7426 82.7007 18.7508 82.7428 18.7681C82.7849 18.7854 82.8232 18.8114 82.8552 18.8445C82.8873 18.8776 82.9124 18.9172 82.9292 18.9607C82.9459 19.0042 82.9539 19.0508 82.9526 19.0976C82.9528 19.1622 82.9348 19.2255 82.9007 19.2797C82.2059 20.5229 80.8267 21.1338 79.4785 21.1338C77.1659 21.1338 75.5067 18.9904 75.5067 16.7077C75.5067 14.425 77.1556 12.2816 79.4785 12.2816C81.8015 12.2816 83.4607 14.4035 83.4711 16.6863ZM82.7348 16.354C82.5896 14.5965 81.283 12.9889 79.4785 12.9889C77.6741 12.9889 76.3985 14.5965 76.2222 16.354H82.7348Z" fill="#3B3B3B"/>
<path d="M94.5881 12.871V20.6515C94.5855 20.7445 94.5486 20.8329 94.485 20.8986C94.4214 20.9644 94.3359 21.0025 94.2459 21.0052C94.2006 21.0065 94.1556 20.9983 94.1135 20.981C94.0714 20.9637 94.0331 20.9377 94.0011 20.9046C93.969 20.8714 93.9439 20.8319 93.9271 20.7884C93.9104 20.7449 93.9024 20.6983 93.9037 20.6515V19.1726C93.3333 20.3407 92.3274 21.1874 91.0415 21.1874C88.9985 21.1874 87.8681 19.3548 87.8681 17.415V12.8603C87.869 12.7668 87.9053 12.6773 87.9693 12.6112C88.0333 12.545 88.1199 12.5075 88.2104 12.5067C88.3003 12.5093 88.3858 12.5475 88.4495 12.6132C88.5131 12.679 88.55 12.7674 88.5526 12.8603V17.415C88.5526 18.9475 89.3926 20.4693 91.0415 20.4693C93.3541 20.4693 93.9037 18.2295 93.9037 15.7539V12.8496C93.9045 12.7923 93.9185 12.736 93.9447 12.6854C93.9708 12.6348 94.0083 12.5914 94.054 12.5589C94.0997 12.5264 94.1523 12.5056 94.2073 12.4984C94.2623 12.4912 94.3183 12.4977 94.3704 12.5174C94.4356 12.5487 94.4907 12.5986 94.5293 12.6613C94.5679 12.724 94.5883 12.7967 94.5881 12.871Z" fill="#3B3B3B"/>
<path d="M112 16.0432V20.5979C111.997 20.6909 111.961 20.7793 111.897 20.845C111.833 20.9108 111.748 20.9489 111.658 20.9516C111.612 20.9529 111.567 20.9447 111.525 20.9274C111.483 20.9101 111.445 20.8841 111.413 20.851C111.381 20.8179 111.356 20.7783 111.339 20.7348C111.322 20.6913 111.314 20.6447 111.316 20.5979V16.0432C111.316 14.5107 110.476 13.0103 108.827 13.0103C106.753 13.0103 105.964 15.3038 105.964 17.0828V20.5979C105.962 20.6909 105.925 20.7793 105.861 20.845C105.798 20.9108 105.712 20.9489 105.622 20.9516C105.577 20.9529 105.532 20.9447 105.49 20.9274C105.448 20.9101 105.409 20.8841 105.377 20.851C105.345 20.8179 105.32 20.7783 105.303 20.7348C105.287 20.6913 105.279 20.6447 105.28 20.5979V16.0432C105.28 14.5107 104.44 13.0103 102.791 13.0103C100.696 13.0103 99.8356 14.7143 99.9081 16.9863C99.9081 17.0399 99.9289 17.1364 99.9081 17.1685V20.5872C99.908 20.6778 99.8765 20.7653 99.8195 20.834C99.7625 20.9028 99.6836 20.9483 99.597 20.9623C99.5486 20.9689 99.4994 20.9647 99.4528 20.9499C99.4061 20.9351 99.3631 20.91 99.3267 20.8764C99.2902 20.8429 99.2613 20.8016 99.2417 20.7553C99.2221 20.7091 99.2125 20.6591 99.2133 20.6086V12.8389C99.2135 12.7483 99.2449 12.6608 99.302 12.592C99.359 12.5233 99.4379 12.4778 99.5244 12.4638C99.5728 12.4571 99.622 12.4614 99.6687 12.4762C99.7154 12.491 99.7584 12.5161 99.7948 12.5496C99.8312 12.5832 99.8602 12.6245 99.8798 12.6707C99.8993 12.717 99.909 12.767 99.9081 12.8174V14.1142C100.499 13.0211 101.557 12.303 102.791 12.303C104.191 12.303 105.28 13.2247 105.726 14.5643C106.296 13.2354 107.406 12.303 108.827 12.303C110.849 12.303 112 14.1142 112 16.0432Z" fill="#3B3B3B"/>
<path d="M8.60741 10.7276L0 14.7679L8.60741 20.0299L17.2252 14.7679L8.60741 10.7276Z" fill="black"/>
<path d="M0 14.7679L8.60741 20.0299L8.60741 0L0 14.7679Z" fill="black"/>
<path d="M8.60741 0L8.60741 20.0299L17.2252 14.7679L8.60741 0Z" fill="black"/>
<path d="M0 16.4612L8.60741 29V21.7125L0 16.4612Z" fill="black"/>
<path d="M8.60741 21.7125V29L17.2252 16.4612L8.60741 21.7125Z" fill="black"/>
</g>
</svg>
