<svg width="81" height="29" viewBox="0 0 81 29" fill="none" xmlns="http://www.w3.org/2000/svg">
<path d="M53.5652 8.14293V22.0335C53.5665 22.0843 53.5575 22.1349 53.5385 22.1822C53.5196 22.2294 53.4912 22.2724 53.4551 22.3083C53.4189 22.3443 53.3758 22.3726 53.3284 22.3914C53.2809 22.4103 53.2301 22.4193 53.179 22.418H50.3327C50.2816 22.4193 50.2307 22.4103 50.1833 22.3914C50.1358 22.3726 50.0927 22.3443 50.0566 22.3083C50.0204 22.2724 49.992 22.2294 49.9731 22.1822C49.9542 22.1349 49.9451 22.0843 49.9464 22.0335V8.14293C49.9451 8.09179 49.9542 8.04092 49.9734 7.99344C49.9925 7.94596 50.0212 7.90289 50.0577 7.86687C50.0942 7.83085 50.1377 7.80265 50.1855 7.784C50.2334 7.76535 50.2846 7.75664 50.3359 7.75843H53.179C53.2303 7.75664 53.2815 7.76535 53.3294 7.784C53.3772 7.80265 53.4207 7.83085 53.4572 7.86687C53.4937 7.90289 53.5224 7.94596 53.5415 7.99344C53.5606 8.04092 53.5698 8.09179 53.5685 8.14293H53.5652ZM75.7776 7.75843C75.888 7.75843 76.0275 7.81335 76.1671 7.92321C76.2482 8.00399 76.2482 8.14293 76.2223 8.25279L71.5227 22.1724C71.494 22.2437 71.4449 22.3051 71.3814 22.3487C71.3179 22.3924 71.2429 22.4165 71.1657 22.418H68.6245C68.4557 22.418 68.3194 22.3372 68.2642 22.1724L65.5282 14.0559L62.7923 22.1692C62.7641 22.2411 62.7151 22.3031 62.6516 22.3474C62.5881 22.3917 62.5128 22.4162 62.4352 22.418H59.8875C59.7252 22.418 59.5857 22.3372 59.5305 22.1692L54.831 8.25279C54.805 8.14293 54.805 8.03307 54.8861 7.92321C54.9446 7.81335 55.0809 7.75843 55.1912 7.75843H58.3686C58.5341 7.75843 58.6737 7.86828 58.7256 8.03307L61.2409 16.2562L64.0061 8.03307C64.0343 7.96114 64.0832 7.89912 64.1467 7.85485C64.2103 7.81057 64.2856 7.78602 64.3631 7.78427H66.6025C66.7648 7.78427 66.9043 7.86828 66.9595 8.03307L69.7247 16.2562L72.24 8.03307C72.2622 7.9553 72.3088 7.88667 72.3731 7.83724C72.4373 7.78781 72.5158 7.76019 72.597 7.75843H75.7776ZM80.5843 7.75843C80.779 7.75843 80.9445 7.92321 80.9737 8.14293V22.0335C80.9751 22.0846 80.9659 22.1355 80.9468 22.183C80.9277 22.2304 80.899 22.2735 80.8625 22.3095C80.826 22.3456 80.7825 22.3738 80.7346 22.3924C80.6868 22.4111 80.6356 22.4198 80.5843 22.418H77.7412C77.6898 22.4198 77.6386 22.4111 77.5908 22.3924C77.543 22.3738 77.4995 22.3456 77.463 22.3095C77.4265 22.2735 77.3978 22.2304 77.3787 22.183C77.3595 22.1355 77.3504 22.0846 77.3517 22.0335V8.14293C77.3504 8.09179 77.3595 8.04092 77.3787 7.99344C77.3978 7.94596 77.4265 7.90289 77.463 7.86687C77.4995 7.83085 77.543 7.80265 77.5908 7.784C77.6386 7.76535 77.6898 7.75664 77.7412 7.75843H80.5843ZM48.2912 21.9236C48.4535 22.1175 48.3172 22.3921 48.0673 22.3921H44.5848C44.5163 22.3934 44.4485 22.3789 44.3865 22.3497C44.3246 22.3206 44.2703 22.2776 44.2278 22.2241L43.6469 21.5133C42.4027 22.3107 40.9561 22.7389 39.4763 22.7476C37.4707 22.6896 35.5668 21.8557 34.1688 20.4229C32.7707 18.9901 31.9887 17.0712 31.9887 15.0737C31.9887 13.0761 32.7707 11.1572 34.1688 9.72444C35.5668 8.29163 37.4707 7.45772 39.4763 7.39977C40.8611 7.3993 42.2205 7.77008 43.4117 8.47317C44.6029 9.17626 45.5819 10.1857 46.246 11.3955C46.91 12.6053 47.2346 13.9708 47.1856 15.3486C47.1365 16.7264 46.7158 18.0656 45.9674 19.2256L48.2912 21.9236ZM41.3815 18.8444L39.8626 17.0026C39.697 16.8088 39.8334 16.505 40.0833 16.505H43.2866C43.4521 16.0656 43.5365 15.568 43.5365 15.0737C43.5365 12.7925 41.8229 10.8086 39.4763 10.8086C37.1266 10.8086 35.4129 12.7925 35.4129 15.0737C35.4129 17.3548 37.1266 19.3096 39.4763 19.3096C40.1384 19.3387 40.8005 19.1481 41.3815 18.8444Z" fill="#FF8C00"/>
<path d="M22.6239 19.5902C22.5874 19.2785 22.4049 18.5599 21.9282 18.376C21.692 18.2829 21.4902 18.3565 21.4 18.5232C21.2518 18.7807 21.3613 19.2785 21.6362 19.7201C21.911 20.1616 22.1666 20.3824 22.3491 20.3824C22.5316 20.3824 22.6969 20.1616 22.6239 19.5902Z" fill="#FF8C00"/>
<path d="M20.0644 20.8434C19.7724 20.588 19.4438 20.4581 19.1497 20.4581C19.0389 20.4523 18.9284 20.4707 18.827 20.5158C18.7255 20.5609 18.636 20.6294 18.5656 20.7157C18.2371 21.1204 18.3831 21.8563 18.8941 22.3C19.1131 22.5035 19.4417 22.6117 19.753 22.6117C20.0644 22.6117 20.3392 22.484 20.5024 22.2806C20.7945 21.8758 20.6313 21.3239 20.0644 20.8434Z" fill="#FF8C00"/>
<path d="M5.76777 23.6456C7.8353 25.0385 10.2661 25.7821 12.7529 25.7825L12.7551 25.7804C14.6017 25.7804 16.4291 25.4319 19.1153 25.4124C21.5116 25.4124 24.1421 26.2609 27.0301 28.8408C27.3222 29.0984 27.7087 28.7673 27.451 28.4534C24.6187 24.8237 21.9862 24.1419 19.3536 23.5532C16.137 22.8346 14.4922 21.0274 13.3391 19.0188C13.1201 18.6141 13.0128 18.6876 12.9913 19.2049C12.9701 19.9639 13.0247 20.7231 13.1545 21.4711H12.7723C8.18354 21.4711 4.45374 17.7093 4.45374 13.0862C4.45374 8.46303 8.18355 4.70131 12.7701 4.70131C13.944 4.70223 15.1044 4.95338 16.1752 5.43828C17.246 5.92318 18.2029 6.63086 18.9832 7.51487C19.7635 8.39888 20.3495 9.43924 20.7027 10.5676C21.056 11.6961 21.1685 12.887 21.0328 14.0623C20.4122 13.9519 19.2227 13.9346 18.3831 14.0082C18.0717 14.045 18.1104 14.1922 18.3466 14.229C21.0886 14.7463 22.9718 16.4583 23.4098 19.5729C23.427 19.6465 23.5193 19.6638 23.5558 19.6097C24.7154 17.6414 25.328 15.3948 25.3295 13.1057C25.3291 10.599 24.5913 8.1488 23.2094 6.06478C21.8276 3.98077 19.8637 2.35655 17.5661 1.3975C15.2685 0.438452 12.7404 0.187632 10.3014 0.676758C7.86241 1.16588 5.62206 2.37299 3.86363 4.14545C2.1052 5.91791 0.907643 8.17613 0.422388 10.6346C-0.0628667 13.093 0.185968 15.6413 1.13743 17.9572C2.08889 20.2731 3.70025 22.2527 5.76777 23.6456Z" fill="#FF8C00"/>
</svg>
