<svg width="94" height="26" viewBox="0 0 94 26" fill="none" xmlns="http://www.w3.org/2000/svg">
<path d="M13.5613 25.8038C20.5494 25.8038 26.2144 20.1969 26.2144 13.2803C26.2144 6.36379 20.5494 0.756836 13.5613 0.756836C6.57319 0.756836 0.908203 6.36379 0.908203 13.2803C0.908203 20.1969 6.57319 25.8038 13.5613 25.8038Z" fill="#26A17B"/>
<path d="M14.91 14.436V14.434C14.8225 14.4401 14.3709 14.4662 13.366 14.4662C12.5625 14.4662 11.999 14.4441 11.7996 14.434V14.436C8.7096 14.3011 6.40478 13.7696 6.40478 13.1313C6.40478 12.4951 8.71163 11.9615 11.7996 11.8266V13.9065C12.001 13.9206 12.5808 13.9548 13.3803 13.9548C14.3404 13.9548 14.8205 13.9146 14.91 13.9065V11.8286C17.994 11.9656 20.2927 12.4971 20.2927 13.1333C20.2927 13.7696 17.9919 14.3011 14.91 14.438M14.91 11.6132V9.75281H19.2125V6.9159H7.49921V9.75281H11.8017V11.6132C8.30478 11.7723 5.67651 12.4568 5.67651 13.2783C5.67651 14.0998 8.30681 14.7844 11.8017 14.9454V20.9092H14.9121V14.9454C18.4028 14.7864 21.027 14.1018 21.027 13.2803C21.027 12.4609 18.4028 11.7743 14.9121 11.6152" fill="white"/>
<path d="M36.9624 7.69106V10.6991H39.9162V12.9562H36.9421V17.5327C36.9421 18.5434 37.5056 19.0367 38.3315 19.0367C38.7444 19.0367 39.2225 18.9078 39.6131 18.7146L40.3515 20.9495C39.5927 21.2495 38.9621 21.3783 38.1586 21.4005C35.8355 21.487 34.3159 20.1763 34.3159 17.5327V12.9562H32.3182V10.6991H34.3159V7.97093L36.9624 7.69106ZM87.8861 10.5582L88.0814 11.7823C88.9073 10.4716 90.0139 10.2783 91.1002 10.2783C92.2069 10.2783 93.2708 10.7072 93.8567 11.287L92.6625 13.5642C92.1194 13.1132 91.621 12.8756 90.7524 12.8756C89.363 12.8756 88.0814 13.6065 88.0814 15.5615V21.1488H85.4328V10.5542L87.8861 10.5582ZM81.3948 14.6193C81.2219 13.2441 80.1356 12.5555 78.616 12.5555C77.1838 12.5555 76.0101 13.2441 75.6195 14.6193H81.3948ZM75.5768 16.7897C75.7497 18.1005 76.9011 19.0468 78.7685 19.0468C79.745 19.0468 81.0266 18.6803 81.6348 18.0582L83.3273 19.7132C82.1983 20.8729 80.3532 21.4327 78.7238 21.4327C75.0336 21.4327 72.8387 19.1756 72.8387 15.781C72.8387 12.5575 75.054 10.236 78.5285 10.236C82.1108 10.236 84.3485 12.4286 83.9356 16.7897H75.5768ZM63.8961 6.10851V11.9958C64.8522 10.7716 66.0239 10.4052 67.2404 10.4052C70.2796 10.4052 71.6262 12.4468 71.6262 15.5635V21.1508H68.9776V15.5857C68.9776 13.6508 67.9564 12.8354 66.5447 12.8354C64.9803 12.8354 63.8961 14.1461 63.8961 15.7367V21.1528H61.2474V6.11053L63.8961 6.10851ZM56.8616 7.57026V10.5783H59.8153V12.8354H56.8412V17.4119C56.8412 18.4226 57.4068 18.9159 58.2306 18.9159C58.6436 18.9159 59.1216 18.787 59.5122 18.5937L60.2507 20.8286C59.4919 21.1286 58.8613 21.2575 58.0577 21.2797C55.7346 21.3662 54.215 20.0535 54.215 17.4119V12.8354H52.2174V10.5783H54.215V7.85012L56.8616 7.57026ZM49.5443 14.6193C49.3714 13.2441 48.2851 12.5555 46.7655 12.5555C45.3334 12.5555 44.1596 13.2441 43.7691 14.6193H49.5443ZM43.7263 16.7897C43.8993 18.1005 45.0507 19.0468 46.9181 19.0468C47.8946 19.0468 49.1761 18.6803 49.7844 18.0582L51.4769 19.7132C50.3479 20.8729 48.5028 21.4327 46.8734 21.4327C43.1812 21.4327 40.9882 19.1756 40.9882 15.781C40.9882 12.5575 43.2035 10.236 46.676 10.236C50.2584 10.236 52.494 12.4286 52.0831 16.7897H43.7263Z" fill="#5B5A5D"/>
</svg>
