<svg width="152" height="120" viewBox="0 0 152 120" fill="none" xmlns="http://www.w3.org/2000/svg">
<path fill-rule="evenodd" clip-rule="evenodd" d="M19.0719 70.1546C18.8617 69.4792 18.609 68.6133 18.5104 68.2306L18.3311 67.5346H12.5037L11.1435 72.0787C10.3953 74.578 9.61374 77.1754 9.40655 77.8509C8.6502 80.3166 6.55132 87.3634 6.55132 87.4367C6.55132 87.4782 6.10911 87.5121 5.56862 87.5121H4.58593V97.1733H2.12918V102.097C2.13989 102.093 2.31493 102.077 4.54498 102.081L7.53402 102.086V97.1733H10.6459V94.1752C10.6459 94.1752 11.8825 94.1894 12.6932 94.1492C13.5039 94.1089 15.1807 94.1205 16.4193 94.1752L18.6713 94.2746V101.103H25.0588V98.8252L23.8714 98.7771C22.7115 98.7301 22.6021 98.7409 22.6021 98.7409L22.5803 97.8283H25.0588V86.5296H23.9741L21.714 78.9562C20.4709 74.7909 19.282 70.8301 19.0719 70.1546ZM14.7418 79.5702C14.9344 78.5795 15.1851 77.5234 15.1851 77.5234L15.2318 77.3716L16.3944 82.3949L16.9515 86.3778C16.978 86.3778 17.4429 86.3778 17.4429 86.3778C17.4429 86.3778 17.5381 87.0328 17.6886 88.3308L17.9342 90.2958H17.1153L16.2964 90.3181L14.331 90.3186C13.2501 90.3189 12.2837 90.3078 12.2837 90.3078C12.2837 90.234 12.4921 89.5344 12.6463 88.9039C13.2628 86.3861 14.4113 81.2703 14.7418 79.5702Z" fill="url(#paint0_linear_28_110)"/>
<path d="M53.0595 93.1155V93.3372H52.3777V93.1155H53.0595ZM52.4754 92.0566V93.3372H52.1886V92.0566H52.4754ZM52.9715 92.572V92.7866H52.3777V92.572H52.9715ZM53.0604 92.0566V92.2791H52.3777V92.0566H53.0604Z" fill="url(#paint1_linear_28_110)"/>
<path d="M52.3936 93.6941L52.6443 94.264L52.8967 93.6941H53.2064L52.7903 94.5121V94.9747H52.4991V94.5121L52.0821 93.6941H52.3936Z" fill="url(#paint2_linear_28_110)"/>
<path d="M51.9982 95.3316H52.2358L52.5437 96.2472L52.8507 95.3316H53.0882L52.6395 96.6122H52.4469L51.9982 95.3316ZM51.861 95.3316H52.1029L52.1478 96.2806V96.6122H51.861V95.3316ZM52.9835 95.3316H53.2263V96.6122H52.9386V96.2806L52.9835 95.3316Z" fill="url(#paint3_linear_28_110)"/>
<path fill-rule="evenodd" clip-rule="evenodd" d="M94.0582 72.363C93.3391 70.0705 92.1396 68.8969 89.6712 68.0707L88.361 67.6322L75.1764 67.5088V84.2371H76.1591C76.1591 84.2371 76.1548 85.4649 76.1591 85.5471C76.1591 85.5471 77.6289 85.512 77.8379 85.512C78.6878 85.537 79.4348 85.5471 79.4348 85.5471V86.2021H76.3229V85.5471H76.1591H74.03V86.2021C74.03 86.2021 74.3295 86.202 74.5622 86.2019L75.0126 86.2021V87.8396H76.3229V94.717H78.9434V96.1908H76.3229V101.532H78.2883V102.016C78.2883 102.016 78.403 102.086 82.7104 102.086C86.948 102.086 87.1326 102.098 87.1326 102.098V101.525C87.1326 101.525 88.6802 101.499 91.3091 101.525L95.3219 101.513V99.8872H93.1926L93.1708 98.9745H95.3217V95.2203H94.6666V89.1496L91.9232 89.1275C88.7409 89.1019 88.2642 89.2429 88.1972 89.0797V88.4946H86.6003C85.1819 88.4946 85.0034 88.5066 85.0034 88.5066V89.0797H88.1153C88.1153 89.0797 88.1972 90.1963 88.1972 92.336V95.9976H87.0917C86.6331 96.0082 85.8223 95.9976 85.8223 95.9976V96.6122C85.8223 96.6122 85.7131 96.682 83.8569 96.682H81.8915V91.715C81.8915 88.983 81.9222 86.7172 81.9593 86.6797C81.9967 86.6422 83.4155 86.6329 85.1122 86.6589L88.1972 86.7064V88.4946L91.4319 88.5321L94.6666 88.5884V89.1496C94.6666 89.1496 95.138 89.1734 95.3217 89.1496L96.7139 89.1616L97.7785 89.1496V88.5066H96.7958C96.7958 87.4422 95.8784 86.2058 95.3178 85.588C95.0314 85.2723 94.6766 85.0558 94.4458 85.0558C94.2316 85.0558 93.7701 84.8251 93.4199 84.5431C93.0696 84.2613 92.5135 83.9076 92.1838 83.7575L91.5847 83.4842L92.4908 82.5916C93.0409 82.0497 93.5981 81.2807 93.909 80.6346C93.909 80.6346 94.2742 80.0075 94.4209 79.5702C94.7974 78.4486 94.6666 76.3891 94.6666 76.3891C94.6656 73.7277 94.3747 73.372 94.0582 72.363ZM81.9734 81.9829L82.066 73.4296L83.8212 73.4422C86.7952 73.4635 87.3496 73.8143 87.6544 75.8674C87.8591 77.2468 87.6339 79.8237 87.2423 80.5809C87.1095 80.8375 86.6817 81.2269 86.2917 81.446C85.6905 81.7838 85.3074 81.855 83.778 81.9138L81.9734 81.9829ZM75.3402 86.5296H76.241V86.8571H75.3402V86.5296ZM76.1591 87.5121H75.3402V87.1846H76.1591V87.5121Z" fill="url(#paint4_linear_28_110)"/>
<path fill-rule="evenodd" clip-rule="evenodd" d="M94.5443 0.28225C94.6175 0.390652 94.6406 0.847677 94.5955 1.29799C94.5505 1.7483 94.4647 3.1852 94.4049 4.4911C94.3451 5.797 94.2339 7.03118 94.1579 7.2339C94.0282 7.57925 93.9244 7.60251 92.5006 7.60562C89.571 7.61168 86.087 8.24244 83.1939 9.29027C80.8222 10.1495 79.3052 10.9577 77.3561 12.4013C76.5403 13.0054 76.5059 13.0622 76.5108 13.7963C76.5136 14.2173 76.4908 14.6482 76.4603 14.7538C76.4299 14.8594 82.7263 21.2584 90.4528 28.9739C98.1791 36.6895 104.618 43.2285 104.761 43.5052C105.106 44.1732 104.992 45.611 104.546 46.213C103.719 47.3306 102.213 47.7268 100.997 47.1477C100.713 47.0124 94.1794 40.5992 86.4775 32.8957L72.474 18.8898L71.8567 18.9923C71.3932 19.0691 71.0668 19.0045 70.5464 18.733L69.8535 18.3717L68.9068 19.4141C67.7122 20.73 65.4508 24.0754 64.3836 26.106C62.8537 29.0165 61.6688 32.2289 60.9234 35.4864C60.5313 37.2001 60.2515 37.5804 59.6288 37.2474C59.1943 37.0147 59.0628 35.7897 59.1745 33.0108C59.2765 30.4713 59.5325 29.13 60.4328 26.4173C61.633 22.8016 64.0488 18.6199 66.3698 16.1411C67.0312 15.4348 67.0349 15.4235 66.7668 14.9696C66.4307 14.4009 66.423 13.8248 66.7414 13.0632C66.9797 12.4927 66.9727 12.4565 66.4958 11.8081C65.8881 10.982 65.8488 10.1744 66.378 9.38918C66.8068 8.75317 67.361 8.42698 68.0191 8.42354C68.5414 8.42076 69.4358 8.83963 69.7118 9.21642C69.8787 9.44419 69.9665 9.43928 70.5653 9.16926C71.0276 8.96081 71.4245 8.89907 71.8569 8.96818C72.3946 9.05414 72.56 8.9988 73.0507 8.56813C77.8866 4.32522 82.9583 1.71064 88.5686 0.568484C91.6627 -0.0612966 94.229 -0.184273 94.5443 0.28225ZM90.4902 1.63957C86.183 2.30554 81.3674 4.16164 77.8924 6.4949C76.6757 7.31218 74.2301 9.23722 73.789 9.72519L73.4664 10.0823L75.4983 12.0277L77.016 10.9811C81.2683 8.04921 86.6637 6.3061 91.5189 6.29529C92.459 6.29333 92.8946 6.22947 92.9385 6.08766C92.9733 5.97516 93.0465 4.86985 93.1013 3.63142L93.2009 1.37986L92.5825 1.39575C92.2425 1.40442 91.3009 1.51414 90.4902 1.63957ZM67.6612 9.99832C67.2354 10.2965 67.2166 10.7377 67.6144 11.0976C68.0181 11.4629 68.1726 11.4408 68.632 10.9518C68.9296 10.6353 68.9836 10.4719 68.8575 10.2718C68.5906 9.84866 68.051 9.72535 67.6612 9.99832ZM69.5751 11.9908C68.6022 12.9635 67.8062 13.8584 67.8062 13.9796C67.8062 14.1007 68.5571 14.9629 69.4751 15.8954C70.6229 17.0617 71.2604 17.5911 71.5169 17.5911C72.0015 17.5911 75.1773 14.3975 75.1745 13.9131C75.1723 13.5451 71.915 10.2223 71.5565 10.2223C71.4396 10.2223 70.5479 11.0182 69.5751 11.9908ZM74.3544 17.0212L73.4615 17.9249L87.4626 31.9129C96.744 41.1857 101.611 45.9366 101.902 46.0068C102.887 46.2452 103.864 45.2236 103.54 44.2938C103.357 43.7702 75.799 16.1173 75.4596 16.1173C75.3428 16.1173 74.8454 16.5241 74.3544 17.0212ZM66.9232 17.5501C64.3649 20.5872 62.4525 24.1541 61.3587 27.9287C60.8629 29.6399 60.5953 31.0406 60.7868 30.9222C60.8641 30.8746 60.9273 30.7357 60.9273 30.614C60.9273 30.307 61.9283 27.9988 62.9533 25.9423C64.3145 23.2116 65.9397 20.7909 68.0771 18.3109L68.9384 17.3112L68.4862 16.8781C68.2374 16.6398 67.9936 16.4448 67.9441 16.4448C67.8948 16.4448 67.4354 16.9421 66.9232 17.5501ZM49.9538 25.7528C51.0921 26.5811 51.2012 28.0029 50.2029 29.001C49.7263 29.4775 49.5536 29.5448 48.8074 29.5448C48.0612 29.5448 47.8884 29.4775 47.4118 29.001C46.652 28.2413 46.5146 27.4075 46.9987 26.4949C47.6067 25.3492 48.9394 25.0146 49.9538 25.7528ZM48.1773 27.0476C48.0146 27.3581 48.1806 27.968 48.4777 28.1516C48.7816 28.3394 49.4333 28.0931 49.5426 27.7493C49.5986 27.5729 49.564 27.2783 49.4658 27.0947C49.2383 26.6697 48.3917 26.6387 48.1773 27.0476ZM77.9752 27.9531C78.6436 28.4036 78.9387 28.941 78.9387 29.7085C78.9387 30.476 78.6436 31.0134 77.9752 31.4639C76.2289 32.6404 74.0339 30.7208 74.9408 28.8102C75.5035 27.6243 76.9011 27.2295 77.9752 27.9531ZM76.5276 29.0697C76.2579 29.1699 76.1591 29.3383 76.1591 29.6975C76.1591 30.3686 76.678 30.6542 77.2347 30.2895C77.6708 30.0038 77.7146 29.839 77.474 29.3895C77.2647 28.9985 76.979 28.9021 76.5276 29.0697ZM53.7621 29.4021C55.0134 30.0403 57.3241 32.7703 57.3241 33.6107C57.3241 34.0333 56.9217 34.3438 56.5335 34.2206C56.3602 34.1656 55.9553 33.6945 55.6338 33.1735C54.9636 32.088 53.6755 30.8202 52.8358 30.4198C52.1741 30.1045 52.0141 29.8158 52.2532 29.3692C52.472 28.9602 52.9149 28.9698 53.7621 29.4021ZM73.6071 29.4804C73.7602 29.5392 73.8662 29.7724 73.8662 30.0504C73.8662 30.0761 73.8664 30.1004 73.8667 30.1235C73.8679 30.2353 73.8688 30.3171 73.8372 30.3834C73.7511 30.5637 73.4243 30.6292 72.2081 30.8728C72.116 30.8913 72.0188 30.9108 71.9162 30.9314C69.6995 31.3771 67.8914 32.4122 65.8013 34.4322C64.6185 35.5753 64.506 35.6449 64.1226 35.4702C63.4012 35.1416 63.5904 34.6295 64.899 33.3678C66.8741 31.4636 68.84 30.2934 71.0791 29.6889C72.1876 29.3895 73.1612 29.3093 73.6071 29.4804ZM72.2157 36.9261C75.0999 37.1961 78.4303 38.1588 78.6735 38.7925C78.7312 38.9428 78.6984 39.2153 78.6006 39.3981C78.3931 39.7858 78.0495 39.7554 76.6038 39.2215C74.7198 38.5258 73.4225 38.3357 70.2187 38.2862C68.5278 38.2602 67.0723 38.1942 66.984 38.1396C66.7544 37.9977 66.7857 37.2847 67.0282 37.1285C67.2259 37.0011 68.5894 36.8256 69.7716 36.7753C70.0869 36.7619 71.1867 36.8297 72.2157 36.9261ZM60.8177 39.2495L64.2295 40.7616L65.6246 43.4635C66.3918 44.9495 67.078 46.2274 67.1494 46.303C67.2208 46.3789 69.0745 46.8763 71.2687 47.4087C73.4631 47.9412 75.4288 48.4508 75.6372 48.5412C76.0058 48.7015 76.3039 49.2643 78.4447 53.8422C79.232 55.5261 79.2654 56.1264 78.5761 56.2058C78.1507 56.2548 78.0723 56.146 77.0979 54.1589C76.5321 53.0047 75.8327 51.5416 75.5438 50.9075L75.0185 49.7546L71.3714 48.8765C69.3656 48.3938 67.3792 47.898 66.9575 47.7748L66.1906 47.5511L64.6657 44.6066C63.8269 42.9873 63.0915 41.6622 63.0316 41.6622C62.9716 41.6622 61.8455 41.1842 60.5288 40.6C59.2122 40.0157 57.9673 39.4957 57.762 39.4441C57.4413 39.3637 57.1079 39.6848 55.3806 41.7379C54.1483 43.2028 52.6009 44.8042 51.3763 45.8822C50.2786 46.8485 48.92 48.0745 48.357 48.6067L47.3333 49.5741V53.4723C47.3333 57.203 47.3192 57.3782 47.0057 57.5459C46.773 57.6704 46.5833 57.6704 46.3506 57.5459C46.0358 57.3774 46.023 57.203 46.023 53.0507C46.023 50.6747 46.0879 48.7062 46.1672 48.6761C46.2464 48.6461 46.8914 48.0987 47.6003 47.4598C48.3093 46.8207 49.6554 45.6155 50.5918 44.7813C51.5281 43.9473 52.5865 42.9228 52.9439 42.5046C53.3012 42.0863 53.7511 41.5592 53.9438 41.3333C56.4097 38.4408 57.0535 37.7326 57.2153 37.7349C57.3201 37.7363 58.9413 38.4179 60.8177 39.2495ZM82.794 38.9505C83.4444 39.2222 84.0192 40.0596 84.0201 40.7369C84.0217 41.985 82.8805 43.0821 81.7395 42.929C80.8404 42.8085 80.3094 42.3919 79.9903 41.5569C79.7222 40.8549 79.7237 40.7909 80.0229 40.074C80.5197 38.8839 81.5928 38.4488 82.794 38.9505ZM81.523 40.2016C81.3538 40.3002 81.2364 40.564 81.2364 40.8459C81.2364 41.4004 81.6429 41.6866 82.1554 41.4929C82.7851 41.2548 82.8167 40.5083 82.2106 40.1839L82.174 40.1643C82.0228 40.0831 81.9463 40.0421 81.8704 40.0431C81.7928 40.0441 81.7158 40.0891 81.56 40.18L81.523 40.2016ZM118.579 84.5646H117.76V102.063L117.392 102.115C117.189 102.144 115.863 102.146 114.445 102.119L111.867 102.07L111.782 84.1552H110.915C110.577 84.1552 110.062 84.1672 110.062 84.1672V83.0736H111.864V67.5346H118.579V84.5646ZM151.008 73.2659H144.293V97.1733H145.74C146.535 97.1733 147.278 97.1733 147.278 97.1733V97.992C147.278 97.992 147.051 97.992 145.748 97.992H144.293V100.612H143.392C143.003 100.612 142.491 100.624 142.491 100.624V101.525H143.802V102.098C143.802 102.098 143.326 102.086 140.608 102.086H137.414V73.2659H130.699V67.5346H151.008V73.2659ZM53.3645 67.9473C56.4064 68.6643 58.1656 70.4947 59.0405 73.8526C59.3537 75.0547 59.5463 76.8955 59.3538 76.8471C59.2073 76.8101 56.7312 76.9722 55.0208 77.1307L54.1098 77.215L53.9177 76.1822C53.5125 74.0042 52.3644 73.1999 49.8395 73.3255C47.6851 73.4327 46.8962 74.1272 46.7198 76.0722C46.6074 77.3105 46.9011 78.3246 47.6124 79.1556C48.1742 79.8118 49.1708 80.3542 53.6064 82.419C54.3992 82.7881 55.5048 83.4034 56.0631 83.7864L57.0784 84.4827L51.1003 84.572V85.3833H55.113L59.1257 85.3953V86.3778C59.1257 86.3778 59.3995 86.3658 59.6193 86.3658H60.113L60.0265 96.7639L58.2249 96.7878L58.1348 102.086H42.7474V96.7055L39.226 96.7639L39.1333 93.0796H36.8512V91.9333H39.1442V93.0796L39.9631 93.1041C40.4135 93.1175 41.2733 93.0916 41.2733 93.0916V91.9333H39.1442V91.1146H46.1868V96.8458H53.3933V88.1671H48.0012L47.9065 85.3345L44.6677 85.3614C41.8693 85.3846 41.2733 85.3614 41.2733 85.3614V84.5734H42.9112C42.9112 84.5734 44.3128 84.5783 44.3244 84.5734C44.3361 84.5685 43.7769 83.9936 43.082 83.2955C42.2251 82.4349 41.6513 81.6839 41.299 80.9621C39.7126 77.7102 40.0283 73.0039 41.9946 70.5923C43.1485 69.1772 44.5655 68.4028 46.842 67.9438C48.3409 67.6416 52.0756 67.6435 53.3645 67.9473ZM59.1257 85.3953V84.5766C59.1257 84.5766 59.4547 84.5646 60.3541 84.5646C61.137 84.5646 61.5824 84.5766 61.5824 84.5766V85.3953C61.5824 85.3953 60.8772 85.3934 60.5997 85.3953C59.1906 85.4055 59.1278 85.3966 59.1257 85.3953ZM111.864 83.0736C111.864 83.0736 111.864 83.514 111.864 83.7643V84.1672C111.864 84.1672 112.846 84.1696 113.502 84.1672C114.157 84.1649 115.221 84.1552 115.221 84.1552V83.0736H111.864ZM4.50403 86.3658V87.3483H0V86.3658L4.50403 86.3658ZM35.2134 102.086H30.2999V96.682H35.2134V102.086ZM70.4267 102.086H65.677V96.682H70.4267V102.086ZM106.459 102.086H101.732L101.678 99.5067C101.648 98.0882 101.647 96.8725 101.676 96.8049C101.705 96.7372 102.793 96.682 104.094 96.682H106.459V102.086ZM128.242 102.086H123.329V96.682H128.242V102.086ZM141.918 97.1733V98.004C141.918 98.004 141.98 97.992 142.988 97.992C143.893 97.992 144.211 98.004 144.211 98.004V97.1733H141.918ZM26.3691 102.016H18.6713V101.525H26.3691V102.016ZM129.122 108.193C130.277 108.725 130.371 108.733 130.371 108.296C130.371 108.061 130.46 107.974 130.658 108.011C130.886 108.055 130.955 108.268 130.997 109.047C131.026 109.586 131.002 110.414 130.944 110.887C130.858 111.595 130.783 111.747 130.519 111.747C130.237 111.747 130.203 111.641 130.229 110.846C130.264 109.755 130.065 109.491 128.69 108.804C127.409 108.163 126.76 108.058 125.646 108.307C123.713 108.739 122.442 110.23 122.02 112.559C121.513 115.35 122.949 118.25 125.273 119.128C126.406 119.556 128.139 119.471 128.99 118.945C129.623 118.554 129.717 118.345 129.714 117.342C129.71 115.985 129.628 115.863 128.676 115.808C128.057 115.772 127.833 115.693 127.833 115.513C127.833 115.311 128.188 115.26 129.867 115.221C131.346 115.188 131.935 115.23 132.026 115.377C132.207 115.67 132.047 115.841 131.59 115.841C131.198 115.841 131.19 115.867 131.19 117.221V118.601L130.167 119.081C125.869 121.096 121.343 119.679 120.309 115.994C119.937 114.67 119.977 112.691 120.4 111.439C120.985 109.707 122.592 108.331 124.636 107.814C124.953 107.734 125.875 107.687 126.686 107.709C127.885 107.743 128.34 107.833 129.122 108.193ZM22.7246 108.349C22.8925 108.852 23.6665 110.756 24.1398 111.829C24.2589 112.099 24.5953 112.946 24.8872 113.712C25.179 114.478 25.5854 115.509 25.7901 116.004C25.9948 116.5 26.2112 117.046 26.2711 117.219C26.4673 117.785 26.6275 117.441 28.5883 112.238C28.9786 111.203 29.514 109.802 29.7779 109.127L30.2579 107.899L31.8348 107.852C33.1356 107.813 33.4117 107.847 33.4117 108.046C33.4117 108.199 33.2159 108.306 32.8795 108.339L32.3472 108.39L32.2965 112.238C32.2685 114.355 32.2936 116.764 32.3521 117.592L32.4582 119.098L33.0578 119.148C33.4594 119.181 33.6574 119.279 33.6574 119.443C33.6574 119.646 33.2958 119.697 31.5692 119.735C29.5648 119.779 29.481 119.767 29.481 119.448C29.481 119.177 29.5872 119.116 30.0542 119.116H30.6274V114.089C30.6274 110.997 30.569 109.121 30.4756 109.217C30.3921 109.303 29.9102 110.441 29.4048 111.747C28.8994 113.053 28.1525 114.978 27.745 116.026C27.0391 117.84 25.9978 119.771 25.7252 119.771C25.6553 119.771 25.2218 118.831 24.7617 117.683C22.7143 112.572 21.2528 109.035 21.1393 108.915C20.9849 108.753 20.7502 118.121 20.8941 118.695C20.9875 119.067 21.0833 119.116 21.7189 119.116C22.3331 119.116 22.4383 119.164 22.4383 119.449C22.4383 119.766 22.3541 119.78 20.6776 119.735C19.2424 119.697 18.9169 119.643 18.9169 119.443C18.9169 119.286 19.1073 119.179 19.4437 119.147C19.8951 119.103 19.9822 119.021 20.0528 118.574C20.1872 117.72 20.4811 108.589 20.3772 108.486C20.267 108.375 20.1617 108.357 19.4902 108.329C19.1718 108.315 18.9988 108.222 18.9988 108.063C18.9988 107.859 19.3051 107.817 20.7729 107.817H22.547L22.7246 108.349ZM48.4798 108.063C48.4798 108.239 48.3 108.308 47.8446 108.308C47.4955 108.308 47.1233 108.412 47.0179 108.539C46.8782 108.708 46.8393 110.16 46.875 113.902L46.9239 119.034L47.712 119.084C48.3494 119.125 48.4899 119.187 48.447 119.412C48.4004 119.655 48.0957 119.694 45.98 119.734C43.65 119.778 43.5663 119.768 43.5663 119.448C43.5663 119.158 43.6719 119.116 44.3875 119.116H45.2086L45.1222 108.39L44.3443 108.34C43.798 108.305 43.5663 108.22 43.5663 108.054C43.5663 107.858 43.9898 107.817 46.023 107.817C48.0977 107.817 48.4798 107.855 48.4798 108.063ZM63.7935 110.062C66.3333 113.219 69.4602 116.987 69.5403 116.987C69.5773 116.987 69.6078 115.034 69.6078 112.648V108.308H68.707C68.0155 108.308 67.8062 108.251 67.8062 108.063C67.8062 107.859 68.1246 107.817 69.6897 107.817C71.2178 107.817 71.5732 107.861 71.5732 108.052C71.5732 108.198 71.3706 108.307 71.0409 108.339L70.5086 108.39L70.4074 110.273C70.3515 111.309 70.2963 113.343 70.2846 114.793C70.2587 117.954 70.1083 119.934 69.8939 119.934C69.8076 119.934 69.5788 119.733 69.3857 119.487C69.0713 119.086 67.5338 117.22 65.8431 115.186C65.5062 114.78 64.3545 113.387 63.2836 112.09C62.2128 110.792 61.1733 109.54 60.9735 109.306L60.6101 108.881L60.5997 119.116H61.5005C62.2921 119.116 62.4014 119.155 62.4014 119.443C62.4014 119.753 62.2921 119.771 60.436 119.771C58.5798 119.771 58.4706 119.753 58.4706 119.443C58.4706 119.173 58.5798 119.116 59.1 119.116H59.7296L59.8365 116.537C59.8953 115.118 59.9438 112.696 59.9441 111.154C59.9446 108.593 59.9199 108.351 59.658 108.352C58.8684 108.355 58.6343 108.289 58.6343 108.063C58.6343 107.86 58.9287 107.817 60.3131 107.82L61.9919 107.823L63.7935 110.062ZM86.5368 108.063C86.609 108.251 86.502 108.308 86.0762 108.308C86.01 108.308 85.9479 108.307 85.8895 108.306C85.6645 108.301 85.4957 108.298 85.3702 108.37C84.9998 108.581 85.0004 109.443 85.003 112.851C85.0032 113.151 85.0034 113.471 85.0034 113.811V119.116H85.7229C86.2192 119.116 86.4724 119.194 86.539 119.368C86.6845 119.746 86.4157 119.784 83.931 119.735C82.0293 119.697 81.6459 119.648 81.6459 119.443C81.6459 119.267 81.8621 119.184 82.4107 119.148L83.1754 119.099L83.2837 117.92C83.4211 116.423 83.3233 108.702 83.165 108.544C83.0996 108.479 82.8048 108.407 82.5098 108.385L82.4924 108.384C81.974 108.345 81.807 108.333 81.7533 108.248C81.7277 108.208 81.7277 108.152 81.7278 108.069V108.063C81.7278 107.856 82.0989 107.817 84.0851 107.817C86.0294 107.817 86.459 107.86 86.5368 108.063ZM102.77 111.116C104.214 112.885 105.561 114.543 105.765 114.8C106.939 116.279 107.538 116.972 107.649 116.979C107.718 116.983 107.755 115.053 107.731 112.689L107.687 108.39L106.746 108.341C106.055 108.305 105.804 108.229 105.804 108.054C105.804 107.86 106.162 107.817 107.769 107.817C109.345 107.817 109.735 107.863 109.735 108.046C109.735 108.176 109.469 108.338 109.12 108.421L108.506 108.566L108.376 114.208C108.305 117.311 108.187 119.91 108.115 119.982C107.982 120.115 106.887 118.875 104.318 115.681C103.559 114.737 102.826 113.84 102.691 113.686C102.555 113.533 101.67 112.449 100.725 111.277C99.7801 110.105 98.9128 109.142 98.798 109.136C98.6328 109.129 98.5918 110.17 98.6022 114.121L98.6153 119.116H99.5071C100.29 119.116 100.399 119.156 100.399 119.443C100.399 119.752 100.29 119.771 98.5155 119.771C96.7413 119.771 96.632 119.752 96.632 119.443C96.632 119.178 96.7413 119.116 97.2021 119.116C97.6614 119.116 97.7872 119.044 97.8489 118.747C97.891 118.545 97.9546 116.15 97.9901 113.425C98.0545 108.488 98.0535 108.472 97.7118 108.47C97.1057 108.466 96.632 108.276 96.632 108.038C96.632 107.849 96.9602 107.815 98.3891 107.852L100.146 107.899L102.77 111.116Z" fill="url(#paint5_linear_28_110)"/>
<path d="M16.6949 88.7125V90.2259H16.33V88.7125H16.6949ZM17.5984 88.7125L17.012 89.4796L16.6689 89.8549L16.6024 89.5202L16.8218 89.1876L17.1482 88.7125H17.5984ZM17.1669 90.2259L16.776 89.5441L17.0598 89.3352L17.5984 90.2259H17.1669Z" fill="url(#paint6_linear_28_110)"/>
<path d="M3.70175 95.5504L3.31085 96.7759H2.94905L3.50942 95.2625H3.73814L3.70175 95.5504ZM4.02612 96.7759L3.63418 95.5504L3.59363 95.2625H3.82547L4.38791 96.7759H4.02612ZM4.00949 96.2126V96.4745H3.2204V96.2126H4.00949Z" fill="url(#paint7_linear_28_110)"/>
<path d="M11.4938 95.1715L12.651 95.4865V95.895L11.1372 95.3846V95.1206L11.4938 95.1715ZM12.651 94.8857L11.4938 95.2006L11.1372 95.2536V94.9865L12.651 94.4793V94.8857Z" fill="url(#paint8_linear_28_110)"/>
<path d="M5.31167 85.641L5.57782 86.1565L5.84397 85.641H6.23071L5.8003 86.3914L6.24215 87.1544H5.85229L5.57782 86.6295L5.3044 87.1544H4.91349L5.35638 86.3914L4.92493 85.641H5.31167Z" fill="url(#paint9_linear_28_110)"/>
<path d="M26.6298 88.0387V88.3006H25.5454V88.0387H26.6298ZM26.6183 86.9681L25.7045 88.3006H25.4633V88.1156L26.3855 86.7872H26.6183V86.9681ZM26.5061 86.7872V87.0502H25.4612V86.7872H26.5061Z" fill="url(#paint10_linear_28_110)"/>
<path d="M25.5153 88.7522H26.0965C26.2122 88.7522 26.3123 88.7695 26.3969 88.8042C26.4822 88.8388 26.5477 88.8901 26.5934 88.958C26.6391 89.0259 26.662 89.1098 26.662 89.2095C26.662 89.2927 26.6485 89.3634 26.6215 89.4216C26.5944 89.4798 26.5563 89.528 26.5071 89.5661C26.4586 89.6042 26.4018 89.635 26.3366 89.6586L26.2264 89.7189H25.7315L25.7295 89.4559H26.0975C26.1481 89.4559 26.19 89.4469 26.2233 89.4289C26.2566 89.4108 26.2815 89.3856 26.2981 89.353C26.3155 89.3197 26.3241 89.2809 26.3241 89.2366C26.3241 89.1908 26.3155 89.1513 26.2981 89.1181C26.2808 89.0848 26.2552 89.0595 26.2212 89.0422C26.1879 89.0242 26.1464 89.0152 26.0965 89.0152H25.8542V90.2656H25.5153V88.7522ZM26.3532 90.2656L26.0133 89.5931L26.3709 89.5921L26.7161 90.25V90.2656H26.3532Z" fill="url(#paint11_linear_28_110)"/>
<path d="M26.2388 90.8809V92.3943H25.8739V90.8809H26.2388ZM26.6942 90.8809V91.1626H25.4289V90.8809H26.6942Z" fill="url(#paint12_linear_28_110)"/>
<path d="M26.0788 94.1666L26.3938 93.0097H26.8024L26.2919 94.5231H26.0278L26.0788 94.1666ZM25.7929 93.0097L26.1079 94.1666L26.1609 94.5231H25.8937L25.3864 93.0097H25.7929Z" fill="url(#paint13_linear_28_110)"/>
<path d="M26.7869 95.7012V95.7626C26.7869 95.8783 26.7706 95.9822 26.7381 96.0744C26.7062 96.1659 26.6608 96.2442 26.6019 96.3093C26.543 96.3737 26.4733 96.4233 26.3929 96.4579C26.3125 96.4919 26.2238 96.5089 26.1268 96.5089C26.029 96.5089 25.9396 96.4919 25.8585 96.4579C25.7781 96.4233 25.7081 96.3737 25.6485 96.3093C25.5896 96.2442 25.5439 96.1659 25.5113 96.0744C25.4794 95.9822 25.4635 95.8783 25.4635 95.7626V95.7012C25.4635 95.5855 25.4794 95.4816 25.5113 95.3894C25.5439 95.2972 25.5893 95.2189 25.6475 95.1545C25.7064 95.0894 25.7761 95.0398 25.8565 95.0059C25.9375 94.9712 26.027 94.9539 26.1247 94.9539C26.2217 94.9539 26.3104 94.9712 26.3908 95.0059C26.4719 95.0398 26.5419 95.0894 26.6008 95.1545C26.6597 95.2189 26.7055 95.2972 26.7381 95.3894C26.7706 95.4816 26.7869 95.5855 26.7869 95.7012ZM26.4168 95.7626V95.6992C26.4168 95.6243 26.4102 95.5585 26.3971 95.5017C26.3846 95.4441 26.3659 95.396 26.3409 95.3572C26.316 95.3184 26.2851 95.2893 26.2484 95.2699C26.2124 95.2498 26.1711 95.2397 26.1247 95.2397C26.0762 95.2397 26.0339 95.2498 25.9978 95.2699C25.9618 95.2893 25.9317 95.3184 25.9074 95.3572C25.8831 95.396 25.8648 95.4441 25.8523 95.5017C25.8405 95.5585 25.8346 95.6243 25.8346 95.6992V95.7626C25.8346 95.8367 25.8405 95.9025 25.8523 95.9601C25.8648 96.0169 25.8831 96.065 25.9074 96.1045C25.9323 96.144 25.9628 96.1738 25.9989 96.1939C26.0356 96.214 26.0782 96.2241 26.1268 96.2241C26.1732 96.2241 26.2144 96.214 26.2505 96.1939C26.2865 96.1738 26.3167 96.144 26.3409 96.1045C26.3659 96.065 26.3846 96.0169 26.3971 95.9601C26.4102 95.9025 26.4168 95.8367 26.4168 95.7626Z" fill="url(#paint14_linear_28_110)"/>
<path d="M95.5218 90.287V89.2434H95.8586V90.287C95.8586 90.3882 95.8357 90.4755 95.79 90.549C95.7449 90.6217 95.6836 90.6782 95.606 90.7184C95.529 90.7579 95.442 90.7776 95.345 90.7776C95.2452 90.7776 95.1565 90.761 95.0789 90.7277C95.0012 90.6938 94.9403 90.6422 94.8959 90.5729C94.8522 90.5029 94.8304 90.4138 94.8304 90.3057H95.1693C95.1693 90.3591 95.1759 90.4014 95.1891 90.4325C95.2029 90.463 95.223 90.4845 95.2494 90.497C95.2757 90.5095 95.3076 90.5157 95.345 90.5157C95.3811 90.5157 95.4122 90.507 95.4386 90.4897C95.4649 90.4717 95.4854 90.4457 95.4999 90.4118C95.5145 90.3771 95.5218 90.3355 95.5218 90.287Z" fill="url(#paint15_linear_28_110)"/>
<path d="M95.3928 92.8856H95.0602L95.0622 92.6237H95.3928C95.4684 92.6237 95.5322 92.6063 95.5841 92.5717C95.6361 92.5363 95.6756 92.4844 95.7027 92.4158C95.7297 92.3465 95.7432 92.2623 95.7432 92.1632V92.0936C95.7432 92.0187 95.7356 91.9529 95.7203 91.8961C95.7051 91.8385 95.6826 91.7904 95.6527 91.7516C95.6229 91.7128 95.5859 91.6837 95.5415 91.6643C95.4978 91.6449 95.4476 91.6352 95.3908 91.6352H95.0539V91.3722H95.3908C95.4933 91.3722 95.5869 91.3895 95.6715 91.4242C95.7567 91.4588 95.8302 91.5084 95.8919 91.5728C95.9542 91.6372 96.0024 91.7135 96.0364 91.8015C96.0703 91.8895 96.0873 91.9875 96.0873 92.0956V92.1632C96.0873 92.2706 96.0703 92.3687 96.0364 92.4574C96.0024 92.5454 95.9542 92.6216 95.8919 92.686C95.8302 92.7498 95.7571 92.799 95.6725 92.8336C95.5879 92.8683 95.4947 92.8856 95.3928 92.8856ZM95.2525 91.3722V92.8856H94.9136V91.3722H95.2525Z" fill="url(#paint16_linear_28_110)"/>
<path d="M95.2525 93.3372V94.8506H94.9136V93.3372H95.2525ZM95.8482 93.9754V94.2373H95.1579V93.9754H95.8482ZM95.9147 93.3372V93.6002H95.1579V93.3372H95.9147Z" fill="url(#paint17_linear_28_110)"/>
<path d="M88.0443 95.5315V95.7934H86.9599V95.5315H88.0443ZM88.0328 94.4609L87.119 95.7934H86.8778V95.6084L87.8 94.28H88.0328V94.4609ZM87.9206 94.28V94.543H86.8757V94.28H87.9206Z" fill="url(#paint18_linear_28_110)"/>
<path d="M83.3573 95.7645L82.1794 95.4277V95.0504L83.6932 95.5691V95.8154L83.3573 95.7645ZM82.1794 96.0711L83.3573 95.7354L83.6932 95.6824V95.9318L82.1794 96.4474V96.0711Z" fill="url(#paint19_linear_28_110)"/>
<path d="M58.9825 97.8308H58.6535L58.6518 97.639H58.9236C58.9717 97.639 59.0107 97.6332 59.0406 97.6215C59.0711 97.6097 59.0934 97.5927 59.1075 97.5704C59.1215 97.5476 59.1286 97.5194 59.1286 97.486C59.1286 97.4479 59.1215 97.4171 59.1075 97.3937C59.0934 97.3702 59.0711 97.3532 59.0406 97.3426C59.0107 97.3315 58.972 97.3259 58.9245 97.3259H58.7573V98.384H58.4706V97.1034H58.9245C59.0013 97.1034 59.0699 97.1105 59.1303 97.1245C59.1907 97.1386 59.2421 97.1603 59.2843 97.1896C59.3271 97.2189 59.3596 97.2556 59.3819 97.2995C59.4042 97.3435 59.4154 97.3954 59.4154 97.4552C59.4154 97.5074 59.4036 97.5561 59.3802 97.6012C59.3573 97.6464 59.3203 97.683 59.2693 97.7112C59.2183 97.7393 59.15 97.7546 59.0644 97.7569L58.9825 97.8308ZM58.9711 98.384H58.5805L58.6843 98.1624H58.9711C59.0151 98.1624 59.0509 98.1553 59.0784 98.1412C59.106 98.1272 59.1262 98.1081 59.1391 98.0841C59.152 98.06 59.1585 98.0331 59.1585 98.0032C59.1585 97.968 59.1523 97.9375 59.14 97.9117C59.1283 97.8859 59.1095 97.866 59.0837 97.8519C59.0585 97.8378 59.0248 97.8308 58.9825 97.8308H58.7257L58.7274 97.639H59.0415L59.1083 97.7147C59.1899 97.7129 59.255 97.7261 59.3036 97.7543C59.3529 97.7818 59.3884 97.8182 59.4101 97.8633C59.4318 97.9085 59.4426 97.9563 59.4426 98.0067C59.4426 98.0899 59.4247 98.1597 59.389 98.216C59.3532 98.2717 59.3001 98.3136 59.2297 98.3418C59.1599 98.3699 59.0737 98.384 58.9711 98.384Z" fill="url(#paint20_linear_28_110)"/>
<path d="M59.5271 98.7409V100.021H59.2412L58.7573 99.1939V100.021H58.4706V98.7409H58.7573L59.2421 99.5685V98.7409H59.5271Z" fill="url(#paint21_linear_28_110)"/>
<defs>
<linearGradient id="paint0_linear_28_110" x1="0" y1="0" x2="161.74" y2="16.8233" gradientUnits="userSpaceOnUse">
<stop stop-color="#60B7FF"/>
<stop offset="1" stop-color="#E255F3"/>
</linearGradient>
<linearGradient id="paint1_linear_28_110" x1="0" y1="0" x2="161.74" y2="16.8233" gradientUnits="userSpaceOnUse">
<stop stop-color="#60B7FF"/>
<stop offset="1" stop-color="#E255F3"/>
</linearGradient>
<linearGradient id="paint2_linear_28_110" x1="0" y1="0" x2="161.74" y2="16.8233" gradientUnits="userSpaceOnUse">
<stop stop-color="#60B7FF"/>
<stop offset="1" stop-color="#E255F3"/>
</linearGradient>
<linearGradient id="paint3_linear_28_110" x1="0" y1="0" x2="161.74" y2="16.8233" gradientUnits="userSpaceOnUse">
<stop stop-color="#60B7FF"/>
<stop offset="1" stop-color="#E255F3"/>
</linearGradient>
<linearGradient id="paint4_linear_28_110" x1="0" y1="0" x2="161.74" y2="16.8233" gradientUnits="userSpaceOnUse">
<stop stop-color="#60B7FF"/>
<stop offset="1" stop-color="#E255F3"/>
</linearGradient>
<linearGradient id="paint5_linear_28_110" x1="0" y1="0" x2="161.74" y2="16.8233" gradientUnits="userSpaceOnUse">
<stop stop-color="#60B7FF"/>
<stop offset="1" stop-color="#E255F3"/>
</linearGradient>
<linearGradient id="paint6_linear_28_110" x1="58.4705" y1="98.7409" x2="59.609" y2="98.8185" gradientUnits="userSpaceOnUse">
<stop stop-color="#60B7FF"/>
<stop offset="1" stop-color="#E255F3"/>
</linearGradient>
<linearGradient id="paint7_linear_28_110" x1="58.4705" y1="98.7409" x2="59.609" y2="98.8185" gradientUnits="userSpaceOnUse">
<stop stop-color="#60B7FF"/>
<stop offset="1" stop-color="#E255F3"/>
</linearGradient>
<linearGradient id="paint8_linear_28_110" x1="58.4705" y1="98.7409" x2="59.609" y2="98.8185" gradientUnits="userSpaceOnUse">
<stop stop-color="#60B7FF"/>
<stop offset="1" stop-color="#E255F3"/>
</linearGradient>
<linearGradient id="paint9_linear_28_110" x1="58.4705" y1="98.7409" x2="59.609" y2="98.8185" gradientUnits="userSpaceOnUse">
<stop stop-color="#60B7FF"/>
<stop offset="1" stop-color="#E255F3"/>
</linearGradient>
<linearGradient id="paint10_linear_28_110" x1="58.4705" y1="98.7409" x2="59.609" y2="98.8185" gradientUnits="userSpaceOnUse">
<stop stop-color="#60B7FF"/>
<stop offset="1" stop-color="#E255F3"/>
</linearGradient>
<linearGradient id="paint11_linear_28_110" x1="58.4705" y1="98.7409" x2="59.609" y2="98.8185" gradientUnits="userSpaceOnUse">
<stop stop-color="#60B7FF"/>
<stop offset="1" stop-color="#E255F3"/>
</linearGradient>
<linearGradient id="paint12_linear_28_110" x1="58.4705" y1="98.7409" x2="59.609" y2="98.8185" gradientUnits="userSpaceOnUse">
<stop stop-color="#60B7FF"/>
<stop offset="1" stop-color="#E255F3"/>
</linearGradient>
<linearGradient id="paint13_linear_28_110" x1="58.4705" y1="98.7409" x2="59.609" y2="98.8185" gradientUnits="userSpaceOnUse">
<stop stop-color="#60B7FF"/>
<stop offset="1" stop-color="#E255F3"/>
</linearGradient>
<linearGradient id="paint14_linear_28_110" x1="58.4705" y1="98.7409" x2="59.609" y2="98.8185" gradientUnits="userSpaceOnUse">
<stop stop-color="#60B7FF"/>
<stop offset="1" stop-color="#E255F3"/>
</linearGradient>
<linearGradient id="paint15_linear_28_110" x1="58.4705" y1="98.7409" x2="59.609" y2="98.8185" gradientUnits="userSpaceOnUse">
<stop stop-color="#60B7FF"/>
<stop offset="1" stop-color="#E255F3"/>
</linearGradient>
<linearGradient id="paint16_linear_28_110" x1="58.4705" y1="98.7409" x2="59.609" y2="98.8185" gradientUnits="userSpaceOnUse">
<stop stop-color="#60B7FF"/>
<stop offset="1" stop-color="#E255F3"/>
</linearGradient>
<linearGradient id="paint17_linear_28_110" x1="58.4705" y1="98.7409" x2="59.609" y2="98.8185" gradientUnits="userSpaceOnUse">
<stop stop-color="#60B7FF"/>
<stop offset="1" stop-color="#E255F3"/>
</linearGradient>
<linearGradient id="paint18_linear_28_110" x1="58.4705" y1="98.7409" x2="59.609" y2="98.8185" gradientUnits="userSpaceOnUse">
<stop stop-color="#60B7FF"/>
<stop offset="1" stop-color="#E255F3"/>
</linearGradient>
<linearGradient id="paint19_linear_28_110" x1="58.4705" y1="98.7409" x2="59.609" y2="98.8185" gradientUnits="userSpaceOnUse">
<stop stop-color="#60B7FF"/>
<stop offset="1" stop-color="#E255F3"/>
</linearGradient>
<linearGradient id="paint20_linear_28_110" x1="58.4705" y1="98.7409" x2="59.609" y2="98.8185" gradientUnits="userSpaceOnUse">
<stop stop-color="#60B7FF"/>
<stop offset="1" stop-color="#E255F3"/>
</linearGradient>
<linearGradient id="paint21_linear_28_110" x1="58.4705" y1="98.7409" x2="59.609" y2="98.8185" gradientUnits="userSpaceOnUse">
<stop stop-color="#60B7FF"/>
<stop offset="1" stop-color="#E255F3"/>
</linearGradient>
</defs>
</svg>
