<svg width="28" height="28" viewBox="0 0 28 28" fill="none" xmlns="http://www.w3.org/2000/svg">
<path d="M12.8577 20.9411C12.5182 20.3776 13.3562 19.8631 13.7077 20.4161L14.3877 21.5161L16.1922 20.0461L15.0772 13.8471L12.0077 17.1821L9.39815 17.4766C9.25315 17.4916 9.11815 17.5766 9.03815 17.6966L7.55815 19.9416L8.78315 22.4906C8.82815 22.5856 8.84315 22.6956 8.82315 22.8006L8.43815 24.9106C8.30815 25.5536 7.34365 25.3851 7.45315 24.7306L7.81315 22.7806L6.79815 20.6856L3.05915 22.1306C2.94915 22.1756 2.85915 22.2506 2.80415 22.3556L0.0696515 27.2551C-0.123349 27.5696 0.134651 28.0111 0.504651 28.0001H11.3827L13.7027 22.3106L12.8577 20.9411Z" fill="#1111FF"/>
<path d="M18.8667 16.0016C18.8374 15.9189 18.7832 15.8473 18.7117 15.7966L16.0717 13.7271L17.2267 20.1611C17.2617 20.3361 17.1917 20.5211 17.0517 20.6361L14.6772 22.5711L12.4627 28.0001H19.8667C20.0217 28.0001 20.1666 27.9301 20.2617 27.8101C20.3567 27.6901 20.3917 27.5351 20.3567 27.3851L19.6117 24.2651L20.8867 21.3111C20.9417 21.1861 20.9417 21.0461 20.8917 20.9211L18.8667 16.0016ZM8.35315 15.1021C8.57315 15.1761 8.81615 15.0781 8.93815 14.8771C10.2969 12.5269 11.9043 10.3296 13.7327 8.32305L14.3427 8.92805C14.7077 9.30405 15.3112 9.29455 15.6772 8.92805L16.0172 8.58805C16.2292 8.37305 16.7241 7.88305 16.9321 7.67305C17.2881 7.31555 17.2992 6.70605 16.9272 6.34305L16.3222 5.73305C18.3288 3.90486 20.526 2.29763 22.8762 0.939053C23.3261 0.694053 23.1011 -0.0639472 22.5812 0.0040528C18.8222 0.324422 15.2975 1.96321 12.6299 4.63081C9.96231 7.29842 8.32352 10.8231 8.00315 14.5821C7.98315 14.8171 8.12815 15.0321 8.35315 15.1021ZM27.4402 16.9016L17.9671 7.94305C17.8821 8.10305 17.7671 8.25305 17.6371 8.38305C17.3296 8.66105 16.3042 9.79105 15.9472 9.96805L24.9007 19.4411C25.2356 19.7961 25.6907 19.9911 26.1757 20.0011C27.7767 20.0661 28.6272 17.9771 27.4402 16.9016Z" fill="#1111FF"/>
</svg>
