<svg width="99" height="30" viewBox="0 0 99 30" fill="none" xmlns="http://www.w3.org/2000/svg">
<path d="M6.46523 15.2178C3.25958 7.19732 0.756532 0.484499 0.888272 0.31014C1.06392 0.179371 6.28958 0.963986 12.4813 2.05373L23.8109 4.10245L26.7531 7.02296L29.6513 9.98706L21.4835 19.8819C16.9604 25.3307 13.0522 29.7768 12.7887 29.7768C12.5252 29.8204 9.7148 23.2383 6.46523 15.2178ZM13.3157 18.1383C13.7109 14.9563 13.9744 12.2973 13.8865 12.2101C13.7987 12.1666 12.0422 10.7281 9.97827 9.07168C4.13784 4.3204 4.53306 4.53835 5.23566 6.28194C5.58697 7.11014 7.34349 11.4691 9.14393 15.9589C10.9444 20.405 12.4374 24.023 12.4813 23.9794C12.5252 23.9358 12.9204 21.3204 13.3157 18.1383ZM20.21 17.8332C23.0205 14.4768 25.2161 11.6871 25.1722 11.5999C25.0405 11.4691 16.4774 12.9076 16.2139 13.0819C15.9944 13.2127 14.8526 21.8435 14.8087 23.2383C14.8087 23.805 14.8965 24.1973 14.9844 24.1101C15.0722 24.023 17.4435 21.1896 20.21 17.8332ZM22.8448 9.76912L25.8748 9.20245L24.5574 7.89476C23.0644 6.4127 22.9326 6.45629 19.6391 9.33322C18.4974 10.3358 18.3218 10.6409 18.9804 10.4666C19.4635 10.3794 21.22 10.0307 22.8448 9.76912ZM17.9265 7.93835C19.4196 6.67424 20.4735 5.62809 20.2539 5.54091C18.8048 5.19219 7.16784 3.23065 6.90436 3.31783C6.55306 3.4486 14.3257 10.1178 14.8965 10.1614C15.0283 10.205 16.3896 9.20245 17.9265 7.93835Z" fill="#D61719"/>
<path d="M92.7104 17.6153L87.4848 11.5127L87.3531 16.9614C87.2652 22.0614 87.1774 22.4101 86.387 22.4101C85.5526 22.4101 85.5087 22.0614 85.5087 14.346C85.5087 9.89988 85.5965 6.28193 85.6844 6.28193C85.8161 6.28193 88.2313 8.94091 91.0857 12.2101L96.2674 18.1383L96.3991 12.864C96.487 7.93834 96.5748 7.58963 97.3652 7.58963C98.1996 7.58963 98.2435 7.93834 98.2435 15.6537C98.2435 20.0999 98.1996 23.7178 98.1118 23.7178C98.0239 23.7178 95.6087 20.9717 92.7104 17.6153Z" fill="#D61719"/>
<path d="M38.9609 17.1794C38.9609 12.2537 39.0048 11.9486 39.8391 11.9486C40.6735 11.9486 40.7174 12.2537 40.7174 17.1794C40.7174 22.105 40.6735 22.4101 39.8391 22.4101C39.0048 22.4101 38.9609 22.105 38.9609 17.1794Z" fill="#D61719"/>
<path d="M41.5957 17.1794C41.5957 12.2537 41.6396 11.9486 42.4739 11.9486C43.3083 11.9486 43.3522 12.2537 43.3522 17.1794C43.3522 22.105 43.3083 22.4101 42.4739 22.4101C41.6396 22.4101 41.5957 22.105 41.5957 17.1794Z" fill="#D61719"/>
<path d="M50.8174 14.9999V7.58963H55.9113C58.6778 7.58963 61.3565 7.80758 61.8396 8.02552C62.2787 8.28706 62.9813 9.07168 63.3326 9.76911C64.3865 11.7742 64.167 13.4742 62.6739 15.1742L61.3126 16.6999L62.6739 19.3153C63.3765 20.7537 63.9913 22.0614 63.9913 22.1922C63.9913 22.323 63.5522 22.4101 63.0252 22.4101C62.2348 22.4101 61.6639 21.7563 60.4783 19.5768C59.0291 16.8742 58.8535 16.7435 57.3165 16.7435H55.6478V19.5768C55.6478 22.105 55.56 22.4101 54.7696 22.4101C53.9791 22.4101 53.8913 22.105 53.8913 18.7486V15.1307L57.2287 14.9127C60.6539 14.6948 61.4443 14.2589 62.0152 12.5153C62.1909 11.7742 61.9713 11.2512 61.1809 10.423C60.1709 9.4204 59.7317 9.33322 56.3065 9.33322H52.5739V15.8717C52.5739 22.105 52.53 22.4101 51.6956 22.4101C50.8613 22.4101 50.8174 22.105 50.8174 14.9999Z" fill="#D61719"/>
<path d="M72.1152 21.7563C67.5483 20.1435 65.7478 14.6076 68.5144 10.6409C69.8317 8.67937 72.0713 7.58963 74.7939 7.58963C80.2391 7.58963 83.6644 13.2999 81.2491 18.3563C79.8439 21.364 75.5404 22.9768 72.1152 21.7563ZM78.263 18.923C80.6783 16.6563 80.7661 13.2127 78.4387 11.0332C74.9257 7.76399 69.217 10.0742 69.2609 14.6948C69.3048 16.9178 70.0074 18.2691 71.72 19.4024C73.4326 20.5794 76.77 20.3178 78.263 18.923Z" fill="#D61719"/>
<path d="M73.6522 14.8255C73.6522 13.9101 73.8718 13.6922 74.7939 13.6922C75.7161 13.6922 75.8918 13.8666 75.76 14.6948C75.6722 15.305 75.277 15.6973 74.6622 15.7845C73.8279 15.9153 73.6522 15.7409 73.6522 14.8255Z" fill="#D61719"/>
<path d="M88.1435 19.3589C88.1435 16.6127 88.2313 16.3076 89.0218 16.3076C89.8122 16.3076 89.9 16.6127 89.9 19.3589C89.9 22.105 89.8122 22.4101 89.0218 22.4101C88.2313 22.4101 88.1435 22.105 88.1435 19.3589Z" fill="#D61719"/>
<path d="M34.5696 8.46142C34.5696 7.63322 34.877 7.58963 41.1565 7.58963C47.4361 7.58963 47.7435 7.63322 47.7435 8.46142C47.7435 9.28963 47.4361 9.33322 41.1565 9.33322C34.877 9.33322 34.5696 9.28963 34.5696 8.46142Z" fill="#D61719"/>
</svg>
